<?xml version="1.0" standalone="no"?>
<!DOCTYPE svg PUBLIC "-//W3C//DTD SVG 20010904//EN"
 "http://www.w3.org/TR/2001/REC-SVG-20010904/DTD/svg10.dtd">
<svg version="1.0" xmlns="http://www.w3.org/2000/svg"
 width="1280.000000pt" height="640.000000pt" viewBox="0 0 1280.000000 640.000000"
 preserveAspectRatio="xMidYMid meet">
<g transform="translate(0.000000,640.000000) scale(0.100000,-0.100000)"
fill="#000000" stroke="none">
<path d="M12340 5550 c-102 -4 -371 -13 -599 -21 l-414 -13 -879 -895 -879
-896 33 -6 c18 -4 211 -12 428 -18 422 -12 460 -15 460 -34 0 -7 -334 -343
-742 -747 l-742 -735 65 -6 c35 -4 168 -7 294 -8 127 -1 237 -6 245 -11 11 -7
12 -14 5 -24 -5 -8 -233 -260 -505 -561 -272 -300 -497 -551 -498 -556 -2 -5
23 5 55 23 1646 918 2443 1364 2443 1368 0 3 -203 3 -451 2 -398 -4 -450 -2
-447 11 1 9 428 354 947 769 l943 753 -413 6 c-228 3 -456 7 -506 8 -51 0 -93
5 -93 10 0 5 377 361 838 792 460 430 839 786 840 791 4 9 -154 8 -428 -2z"/>
<path d="M3755 5470 c-104 -4 -371 -14 -593 -21 l-402 -12 -873 -890 c-479
-489 -873 -893 -875 -897 -5 -14 84 -19 478 -30 386 -11 440 -15 440 -30 0 -4
-334 -339 -742 -744 -408 -405 -738 -739 -734 -743 3 -4 138 -9 299 -12 267
-6 292 -7 292 -23 0 -10 -223 -263 -495 -564 -272 -301 -499 -553 -503 -561
-7 -11 0 -10 26 4 140 74 2467 1378 2467 1382 0 4 -202 4 -450 2 -324 -2 -450
0 -450 8 0 6 426 352 947 768 l947 758 -335 6 c-184 3 -410 7 -502 8 -143 1
-168 3 -165 16 2 8 370 357 818 776 448 418 826 772 840 785 l25 24 -135 -2
c-74 0 -220 -4 -325 -8z"/>
</g>
</svg>
